<?xml version="1.0" encoding="UTF-8" standalone="no"?>
<!DOCTYPE svg PUBLIC "-//W3C//DTD SVG 1.1//EN" "http://www.w3.org/Graphics/SVG/1.1/DTD/svg11.dtd">
<svg version="1.1" xmlns="http://www.w3.org/2000/svg" xmlns:xlink="http://www.w3.org/1999/xlink" preserveAspectRatio="xMidYMid meet" viewBox="0 0 64 64" width="64" height="64"><defs><path d="M51.32 41L62 32L51.32 23L51.32 28.71L40 28.71L40 35.31L51.32 35.31L51.32 41Z" id="c2cZNXQcfA"></path><path d="M13.47 23L2.79 32L13.47 41L13.47 35.29L24.79 35.29L24.79 28.69L13.47 28.69L13.47 23Z" id="a7R0x4xOAh"></path><path d="M23 51.32L32 62L41 51.32L35.29 51.32L35.29 40L28.69 40L28.69 51.32L23 51.32Z" id="aMJHgqcJz"></path><path d="M23 12.68L32 2L41 12.68L35.29 12.68L35.29 24L28.69 24L28.69 12.68L23 12.68Z" id="aOfpzqEV"></path></defs><g><g><g><use xlink:href="#c2cZNXQcfA" opacity="1" fill="#ffffff" fill-opacity="1"></use><g><use xlink:href="#c2cZNXQcfA" opacity="1" fill-opacity="0" stroke="#ff0000" stroke-width="2" stroke-opacity="1"></use></g></g><g><use xlink:href="#a7R0x4xOAh" opacity="1" fill="#ffffff" fill-opacity="1"></use><g><use xlink:href="#a7R0x4xOAh" opacity="1" fill-opacity="0" stroke="#ff0000" stroke-width="2" stroke-opacity="1"></use></g></g><g><use xlink:href="#aMJHgqcJz" opacity="1" fill="#ffffff" fill-opacity="1"></use><g><use xlink:href="#aMJHgqcJz" opacity="1" fill-opacity="0" stroke="#ff0000" stroke-width="2" stroke-opacity="1"></use></g></g><g><use xlink:href="#aOfpzqEV" opacity="1" fill="#ffffff" fill-opacity="1"></use><g><use xlink:href="#aOfpzqEV" opacity="1" fill-opacity="0" stroke="#ff0000" stroke-width="2" stroke-opacity="1"></use></g></g></g></g></svg>